<?xml version="1.0" encoding="UTF-8" standalone="no"?>
<svg
   width="128"
   height="128"
   version="1.1"
   id="svg6"
   sodipodi:docname="icon.svg"
   inkscape:version="1.3 (0e150ed6c4, 2023-07-21)"
   xmlns:inkscape="http://www.inkscape.org/namespaces/inkscape"
   xmlns:sodipodi="http://sodipodi.sourceforge.net/DTD/sodipodi-0.dtd"
   xmlns="http://www.w3.org/2000/svg"
   xmlns:svg="http://www.w3.org/2000/svg">
  <defs
     id="defs6" />
  <sodipodi:namedview
     id="namedview6"
     pagecolor="#505050"
     bordercolor="#eeeeee"
     borderopacity="1"
     inkscape:showpageshadow="0"
     inkscape:pageopacity="0"
     inkscape:pagecheckerboard="0"
     inkscape:deskcolor="#505050"
     inkscape:zoom="2.2456165"
     inkscape:cx="7.3476483"
     inkscape:cy="27.832001"
     inkscape:window-width="1920"
     inkscape:window-height="1009"
     inkscape:window-x="1912"
     inkscape:window-y="-8"
     inkscape:window-maximized="1"
     inkscape:current-layer="svg6" />
  <g
     id="g2"
     transform="matrix(4.0032302,0,0,4.0032302,-1452.3942,-328.95866)"
     style="fill:#8eef97;fill-opacity:1">
    <path
       fill="#010101"
       d="m 385.45283,101.89874 c 0.007,-0.77497 0.005,-2.475709 -0.13044,-4.156607 0.0119,0.70829 0.0304,1.356519 0.0545,1.695715 0.0135,0.194469 0.0431,1.213112 0.0759,2.460892 z"
       id="path1-1"
       style="stroke-width:0.264583;fill:#8eef97;fill-opacity:1" />
    <path
       fill="#010101"
       d="m 378.97159,87.322313 c 0.023,-0.544513 -0.006,-1.127655 0.45509,-1.094317 0.22145,0.01614 0.60298,0.0725 1.075,0.166952 0.52335,0.104775 0.44953,2.942431 0.44953,2.942431 l 1.89732,0.737659 c 0.0625,-2.053432 -0.45085,-4.437857 -0.96308,-4.583907 -0.85831,-0.244739 -2.11799,-0.75512 -3.36973,-0.481277 -0.83635,0.182827 -1.06019,3.253317 -1.06019,3.253317 l 1.46368,0.383381 c 0,0 0.0153,-0.452967 0.0524,-1.324239 z"
       id="path2-0"
       style="stroke-width:0.264583;fill:#8eef97;fill-opacity:1" />
    <path
       fill="#010101"
       d="m 370.14377,97.701917 c 0.30824,0.114035 0.81624,0.281516 1.41764,0.470164 0.44953,-1.244864 1.21179,-2.194454 1.21179,-2.194454 0,0 0.17595,-0.461169 1.05992,-0.275431 0.88397,0.185473 0.92525,0.588962 0.92525,0.588962 0,0 -0.57256,0.928159 -1.12924,2.179109 -0.0344,0.07726 -0.0796,0.173302 -0.11404,0.29157 1.4015,0.408517 2.75564,0.770202 3.1451,0.805657 0.7665,0.07011 2.69187,0.154252 3.05779,-1.698625 0.3609,-1.828536 0.71808,-2.944019 1.02235,-3.640402 0.0609,-0.152136 0.11563,-0.278077 0.15584,-0.369094 0.0828,-0.187325 0.33497,-0.563033 0.70168,-0.931333 0,-2.65e-4 0,-2.65e-4 0,-5.3e-4 0.001,-0.0026 0.003,-0.004 0.005,-0.0045 0.49001,-0.489479 1.18322,-0.963612 1.95712,-0.960702 0.0408,0 0.0905,0.005 0.14579,0.01349 -0.45535,-0.506412 -0.9742,-0.937683 -1.52665,-1.150673 -0.12567,-0.04842 -4.68788,-1.851554 -6.05102,-1.658673 -0.0392,0.0056 -0.0757,0.01085 -0.11086,0.01587 0.0661,-0.0095 0.11086,-0.01587 0.11086,-0.01587 0,0 -3.12499,0.07752 -5.19139,2.142332 -1.0795,1.078441 -2.02723,3.013075 -2.62228,4.872037 -0.008,0.471752 0.59425,1.064419 1.82959,1.52109 z"
       id="path3-3"
       style="stroke-width:0.264583;fill:#8eef97;fill-opacity:1" />
    <path
       fill="#010101"
       d="m 376.24215,100.95259 c -0.61436,-0.11272 -1.75551,-0.42545 -2.9718,-0.78502 -0.18521,0.73263 -0.0278,1.99099 -0.0278,1.99099 0,0 -0.23918,0.57097 -1.18189,0.36221 -0.80328,-0.17833 -0.78264,-0.75803 -0.78264,-0.75803 0,0 -0.20532,-1.17634 -0.0243,-2.211651 -1.15782,-0.364595 -2.14154,-0.691885 -2.50349,-0.830791 -0.4355,-0.166688 -0.74956,-0.398992 -0.97578,-0.658548 -0.0167,0.102923 -0.0315,0.518583 -0.0455,0.617537 -0.82074,5.845173 0.88265,8.362423 1.0033,8.893973 0.16219,0.71464 3.27581,2.21297 6.28147,3.31073 1.74361,0.63685 3.69015,0.51329 4.46326,0.45773 l 0.0566,-0.003 c 0.12303,-2.26007 0.45799,-8.14308 0.6223,-11.743265 -0.26035,1.321855 -2.4429,1.626655 -3.91372,1.357315 z"
       id="path4"
       style="stroke-width:0.264583;fill:#8eef97;fill-opacity:1" />
    <path
       fill="#010101"
       d="m 385.45283,101.89874 c -0.0328,-1.24778 -0.0622,-2.265894 -0.0759,-2.461421 -0.0241,-0.338667 -0.0426,-0.986896 -0.0545,-1.69545 -0.12039,-1.496484 -0.50615,-3.102769 -0.83609,-3.937529 -0.55456,-1.405467 -2.16508,0.357452 -2.6199,1.467379 -0.47096,1.14935 -0.91678,14.398361 -0.96017,15.711751 1.12448,-0.29289 2.73526,-0.71332 2.93264,-1.02314 0.41831,-0.65511 0.64505,-1.28932 0.74956,-1.82933 0.0693,-0.35957 0.99933,-0.69586 0.99933,-0.69586 0,0 -0.0659,-2.8575 -0.12541,-5.1636 l -0.0164,0.0609 c 0,5.3e-4 0.005,-0.15849 0.007,-0.43365 z"
       id="path5"
       style="stroke-width:0.264583;fill:#8eef97;fill-opacity:1" />
    <path
       fill="#010101"
       d="m 389.57636,96.137435 c 0,0 -0.23839,-2.839508 -0.29237,-3.391429 -0.1307,-1.332706 -1.33297,-5.618956 -5.43083,-2.334948 l 1.08558,1.184275 c 0,0 2.77707,-2.49555 2.88184,3.450696 0.009,0.503238 0.0421,1.206236 0.34476,5.436921 0.33496,4.67757 -1.49437,4.7035 -1.49437,4.7035 l 0.0825,1.98914 c 0,0 0.67945,-0.1778 1.38112,-0.47308 0.99299,-0.4183 1.94443,-2.16905 1.94443,-4.73525 -0.001,-1.01547 -0.50271,-5.829825 -0.50271,-5.829825 z"
       id="path6"
       style="stroke-width:0.264583;fill:#8eef97;fill-opacity:1" />
    <path
       fill="#010101"
       d="m 375.22562,88.198348 0.90594,-0.139171 v -0.766762 l 0.17436,-0.627063 c 0,0 -0.83662,0.383381 -1.0803,0.766498 -0.24394,0.383381 -0.34872,0.592402 -0.34872,0.766498 0,0.17436 0.34872,0 0.34872,0 z"
       id="path7"
       style="stroke-width:0.264583;fill:#8eef97;fill-opacity:1" />
  </g>
</svg>
